# AST/ASF file generated using VICON BodyLanguage
# -----------------------------------------------
:version 1.10
:name VICON
:units
  mass 1.0
  length 0.45
  angle deg
:documentation
   .ast/.asf automatically generated from VICON data using
   VICON BodyBuilder and BodyLanguage model FoxedUp or BRILLIANT.MOD
:root
   order TX TY TZ RX RY RZ
   axis XYZ
   position 0 0 0  
   orientation 0 0 0 
:bonedata
  begin
     id 1 
     name lhipjoint
     direction 0.631061 -0.684803 0.364427 
     length 2.59943 
     axis 0 0 0  XYZ
  end
  begin
     id 2 
     name lfemur
     direction 0.34202 -0.939693 0  
     length 6.69088  
     axis 0 0 20  XYZ
    dof rx ry rz
    limits (-160.0 20.0)
           (-70.0 70.0)
           (-60.0 70.0)
  end
  begin
     id 3 
     name ltibia
     direction 0.34202 -0.939693 0   
     length 7.83506   
     axis 0 0 20   XYZ
    dof rx
    limits (-10.0 170.0)
  end
  begin
     id 4 
     name lfoot
     direction 0.176279 -0.484322 0.856947   
     length 2.95235   
     axis -90 7.62852e-016 20   XYZ
    dof rx rz
    limits (-45.0 90.0)
           (-70.0 20.0)
  end
  begin
     id 5 
     name ltoes
     direction 1.53551e-011 -4.21828e-011 1   
     length 1.41888   
     axis -90 7.62852e-016 20   XYZ
    dof rx
    limits (-90.0 20.0)
  end
  begin
     id 6 
     name rhipjoint
     direction -0.641155 -0.677457 0.360518   
     length 2.62761  
     axis 0 0 0  XYZ 
  end
  begin
     id 7 
     name rfemur
     direction -0.34202 -0.939693 0   
     length 6.52283   
     axis 0 0 -20   XYZ
    dof rx ry rz
    limits (-160.0 20.0)
           (-70.0 70.0)
           (-70.0 60.0)
  end
  begin
     id 8 
     name rtibia
     direction -0.34202 -0.939693 0   
     length 7.74138   
     axis 0 0 -20   XYZ
    dof rx
    limits (-10.0 170.0)
 end
 begin
     id 9 
     name rfoot
     direction -0.186474 -0.512334 0.838297   
     length 2.72941  
     axis -90 -7.62852e-016 -20   XYZ
    dof rx rz
    limits (-45.0 90.0)
           (-20.0 70.0)
  end
  begin
     id 10 
     name rtoes
     direction -1.53683e-011 -4.22007e-011 1   
     length 1.30521   
     axis -90 -7.62852e-016 -20   XYZ
    dof rx
    limits (-90.0 20.0)
  end
  begin
     id 11 
     name lowerback
     direction -0.0121201 0.985605 -0.168631   
     length 2.60975   
     axis 0 0 0   XYZ
    dof rx ry rz
    limits (-20.0 45.0)
           (-30.0 30.0)
           (-30.0 30.0)
  end
  begin
     id 12 
     name upperback
     direction -0.019495 0.999568 -0.0220039   
     length 2.65091   
     axis 0 0 0   XYZ
    dof rx ry rz
    limits (-20.0 45.0)
           (-30.0 30.0)
           (-30.0 30.0)
  end
  begin
     id 13 
     name thorax
     direction -0.0125765 0.998661 0.0501718   
     length 2.70267   
     axis 0 0 0   XYZ
    dof rx ry rz
    limits (-20.0 45.0)
           (-30.0 30.0)
           (-30.0 30.0)
  end
  begin
     id 14 
     name lowerneck
     direction -0.0309438 0.997491 -0.0636732   
     length 1.56498   
     axis 0 0 0   XYZ
    dof rx ry rz
    limits (-20.0 45.0)
           (-30.0 30.0)
           (-30.0 30.0)
  end
  begin
     id 15 
     name upperneck
     direction -0.00130017 0.992397 -0.123074   
     length 1.5414   
     axis 0 0 0   XYZ
    dof rx ry rz
    limits (-20.0 45.0)
           (-30.0 30.0)
           (-30.0 30.0)
  end
  begin
     id 16
     name head
     direction 0.00242507 0.999315 -0.0369171  
     length 1.60129  
     axis 0 0 0   XYZ
    dof rx ry rz
    limits (-20.0 45.0)
           (-30.0 30.0)
           (-30.0 30.0)
  end
  begin
     id 17 
     name lclavicle
     direction 0.996744 0.0363396 -0.0719802  
     length 4.63989  
     axis 0 0 0   XYZ
    dof ry rz
    limits (-20.0 10.0)
           (0.0 20.0)
  end
  begin
     id 18 
     name lhumerus
     direction 1 -4.49035e-011 -2.38432e-027   
     length 4.58161   
     axis 180 -30 -90   XYZ
    dof rx ry rz
    limits (-60.0 90.0)
           (-90.0 90.0)
           (-90.0 90.0)
  end
  begin
     id 19
     name lradius
     direction 1 0.000357117 -0.000206182   
     length 3.43782   
     axis 180 -30 -90   XYZ
    dof rx
    limits (-10.0 170.0)
  end
  begin
     id 20
     name lwrist
     direction 1 -7.34592e-005 -0.000404398   
     length 1.71891   
     axis 7.40711e-015 90 90   XYZ
    dof ry
    limits (-180.0 0.0)
 end
  begin
     id 21 
     name lhand
     direction 1 -4.48735e-011 -2.22254e-026   
     length 1.04662   
     axis 1.41817e-014 90 90   XYZ
    dof rx rz
    limits (-90.0 90.0)
           (-45.0 45.0)
  end
  begin
     id 22 
     name lfingers
     direction 1 -4.49414e-011 -4.44507e-026   
     length 0.843814   
     axis 2.83634e-014 90 90   XYZ
    dof rx
    limits (0.0 90.0)
  end
  begin
     id 23
     name lthumb
     direction 0.707107 -6.3482e-011 0.707107   
     length 1.21155   
     axis -90 45 2.85299e-015   XYZ
    dof rx rz
    limits (-45.0 45.0)
           (-45.0 45.0)
  end
  begin
     id 24 
     name rclavicle
     direction -0.997328 0.0105626 0.0722925   
     length 4.0272  
     axis 0 0 0   XYZ 
    dof ry rz
    limits (-10.0 20.0)
           (-20.0 0.0)
  end
  begin
     id 25 
     name rhumerus
     direction -1 -4.48913e-011 -1.83378e-027  
     length 4.53415   
     axis 180 30 90   XYZ
    dof rx ry rz
    limits (-90.0 60.0)
           (-90.0 90.0)
           (-90.0 90.0)
  end
  begin
     id 26 
     name rradius
     direction -0.999999 0.00120542 -0.000695951   
     length 3.33298   
     axis 180 30 90   XYZ
    dof rx
    limits (-10.0 170.0)
  end
  begin
     id 27 
     name rwrist
     direction -0.999999 0.000362235 -0.0013361   
     length 1.66649   
     axis 7.40711e-015 -90 -90   XYZ
    dof ry
    limits (-180.0 0.0)
  end
  begin
     id 28
     name rhand
     direction -1 -4.49379e-011 -2.22254e-026   
     length 1.21477   
     axis 1.41817e-014 -90 -90   XYZ
    dof rx rz
    limits (-90.0 90.0)
           (-45.0 45.0)
  end
  begin
     id 29
     name rfingers
     direction -1 -4.48656e-011 -4.44507e-026   
     length 0.979378   
     axis 2.83634e-014 -90 -90   XYZ
    dof rx
    limits (0.0 90.0)
  end
  begin
     id 30
     name rthumb
     direction -0.707107 -6.35052e-011 0.707107   
     length 1.4062   
     axis -90 -45 -2.85299e-015   XYZ
    dof rx rz
    limits (-45.0 45.0)
           (-45.0 45.0)
  end
:hierarchy
  begin
    root lhipjoint rhipjoint lowerback
    lhipjoint lfemur
    lfemur ltibia
    ltibia lfoot
    lfoot ltoes
    rhipjoint rfemur
    rfemur rtibia
    rtibia rfoot
    rfoot rtoes
    lowerback upperback
    upperback thorax
    thorax lowerneck lclavicle rclavicle
    lowerneck upperneck
    upperneck head
    lclavicle lhumerus
    lhumerus lradius
    lradius lwrist
    lwrist lhand lthumb
    lhand lfingers
    rclavicle rhumerus
    rhumerus rradius
    rradius rwrist
    rwrist rhand rthumb
    rhand rfingers
  end

#!OML:ASF X:\für Bonn\!DataBase\2005_08_12_Daniel\c3d\Daniel.ASF
:FULLY-SPECIFIED
:DEGREES
16
root 18.3468 18.0896 19.6117 -171.92 -46.9931 171.5
lowerback 8.59538 1.05252 -3.33322
upperback 1.50541 0.808754 -3.38023
thorax -3.26013 0.35278 -1.71713
lowerneck -8.35718 0.0227526 -6.36375
upperneck 2.94809 0.629394 0.867128
head 2.37984 0.243638 1.41908
rclavicle 1.4064e-014 3.45885e-014
rhumerus -59.0634 18.3306 -108.118
rradius 95.2355
rwrist -6.78108
rhand -13.4851 26.4014
rfingers 7.12502
rthumb 12.6255 -3.19705
lclavicle 1.4064e-014 3.45885e-014
lhumerus -72.052 -3.5776 90.8028
lradius 113.291
lwrist 11.5723
lhand -7.55686 -11.875
lfingers 7.12502
lthumb 18.3352 17.2809
rfemur 14.7293 -0.803621 20.3776
rtibia 46.3895
rfoot 9.23889 -9.45767
rtoes -3.67385
lfemur -24.7046 -2.72452 -27.4686
ltibia 27.9165
lfoot -7.36609 -0.9478
ltoes -19.2668
17
root 18.074 17.9943 19.3349 -172.571 -47.4421 171.2
lowerback 9.49418 0.905088 -3.71655
upperback 1.86695 0.517587 -3.31241
thorax -3.39021 0.201237 -1.40761
lowerneck -8.52464 0.0284011 -6.5779
upperneck 2.69691 0.663299 0.84729
head 2.32591 0.259802 1.45123
rclavicle -9.44227e-016 2.3059e-014
rhumerus -58.7193 17.7146 -107.628
rradius 93.8563
rwrist -7.01483
rhand -13.6579 26.2178
rfingers 7.12502
rthumb 12.4589 -3.39087
lclavicle -9.44227e-016 2.3059e-014
lhumerus -71.5062 -3.40323 90.5995
lradius 113.51
lwrist 11.4469
lhand -7.95384 -12.2448
lfingers 7.12502
lthumb 17.9533 16.9465
rfemur 14.6406 -1.76332 19.808
rtibia 49.6321
rfoot 8.70927 -8.51646
rtoes -4.49167
lfemur -23.8265 -1.90099 -28.094
ltibia 28.2937
lfoot -7.0077 -1.5628
ltoes -18.9216
18
root 17.8044 17.8887 19.0647 -173.166 -47.7793 170.81
lowerback 10.489 0.791484 -4.14671
upperback 2.21132 0.245468 -3.28393
thorax -3.58476 0.057442 -1.1108
lowerneck -8.61022 0.0545382 -6.72347
upperneck 2.36983 0.710579 0.799698
head 2.23051 0.284306 1.46093
rclavicle -8.96022e-014 2.38542e-015
rhumerus -58.27 17.0365 -107.115
rradius 92.4029
rwrist -7.19895
rhand -13.8791 26.0149
rfingers 7.12502
rthumb 12.2457 -3.60657
lclavicle -8.96022e-014 2.38542e-015
lhumerus -70.9667 -3.26237 90.3872
lradius 113.773
lwrist 11.5599
lhand -8.23368 -12.6211
lfingers 7.12502
lthumb 17.684 16.5948
rfemur 14.4132 -2.60846 19.0722
rtibia 53.0118
rfoot 8.23483 -7.66623
rtoes -5.70089
lfemur -23.0318 -0.791149 -28.8113
ltibia 29.2285
lfoot -6.9245 -2.44292
ltoes -17.7295
19
root 17.5359 17.7775 18.799 -173.85 -48.0536 170.413
lowerback 11.6537 0.681111 -4.53396
upperback 2.55281 -0.0476647 -3.31074
thorax -3.8686 -0.0992527 -0.887864
lowerneck -8.5637 0.108382 -6.72703
upperneck 1.93576 0.768527 0.722345
head 2.07452 0.317456 1.43345
rclavicle 9.88954e-015 -2.98177e-014
rhumerus -57.7189 16.3196 -106.661
rradius 90.8165
rwrist -7.25066
rhand -14.1519 25.8672
rfingers 7.12502
rthumb 11.9826 -3.7698
lclavicle 9.88954e-015 -2.98177e-014
lhumerus -70.3947 -3.09196 90.1236
lradius 114.033
lwrist 11.8559
lhand -8.49077 -12.9492
lfingers 7.12502
lthumb 17.4366 16.2887
rfemur 14.1495 -3.29063 18.2603
rtibia 56.5022
rfoot 7.80395 -6.83738
rtoes -6.73807
lfemur -22.1893 0.169673 -29.4771
ltibia 30.6375
lfoot -7.08772 -3.14783
ltoes -14.7749
20
root 17.2696 17.6589 18.5364 -174.505 -48.2566 169.942
lowerback 12.8692 0.591924 -4.95766
upperback 2.89036 -0.340259 -3.38503
thorax -4.17697 -0.257551 -0.686846
lowerneck -8.41946 0.1865 -6.64498
upperneck 1.41042 0.840019 0.643397
head 1.87088 0.360144 1.38884
rclavicle 1.56046e-014 6.36111e-015
rhumerus -57.0834 15.5468 -106.237
rradius 89.1196
rwrist -7.18759
rhand -14.4997 25.8645
rfingers 7.12502
rthumb 11.6472 -3.79174
lclavicle 1.56046e-014 6.36111e-015
lhumerus -69.9527 -2.94301 89.8385
lradius 114.479
lwrist 12.4315
lhand -8.70536 -13.1861
lfingers 7.12502
lthumb 17.23 16.0701
rfemur 13.7477 -3.84075 17.2999
rtibia 60.1407
rfoot 7.36067 -5.89526
rtoes -7.23279
lfemur -21.3221 0.606663 -30.1011
ltibia 32.3954
lfoot -7.81581 -3.2261
ltoes -10.7017
21
root 17.0064 17.531 18.2782 -175.111 -48.4301 169.473
lowerback 14.0526 0.505654 -5.36539
upperback 3.21463 -0.639606 -3.4738
thorax -4.47386 -0.420057 -0.501139
lowerneck -8.2558 0.268051 -6.52133
upperneck 0.884236 0.910175 0.555392
head 1.66522 0.401998 1.3338
rclavicle 1.59028e-014 2.8625e-014
rhumerus -56.5622 14.7213 -105.814
rradius 87.5476
rwrist -6.84857
rhand -14.9295 25.9591
rfingers 7.12502
rthumb 11.2327 -3.72014
lclavicle 1.59028e-014 2.8625e-014
lhumerus -69.1867 -2.78185 89.5763
lradius 114.865
lwrist 13.2373
lhand -8.80016 -13.3053
lfingers 7.12502
lthumb 17.1388 15.9588
rfemur 13.0839 -4.39451 16.1981
rtibia 63.9215
rfoot 6.95167 -4.76759
rtoes -7.06338
lfemur -20.5169 0.528071 -30.6498
ltibia 34.4378
lfoot -9.0096 -3.14391
ltoes -5.65408
22
root 16.7463 17.3958 18.0243 -175.576 -48.5334 168.99
lowerback 15.0868 0.428172 -5.78982
upperback 3.50892 -0.928848 -3.56665
thorax -4.71343 -0.577348 -0.30538
lowerneck -8.03445 0.35579 -6.47414
upperneck 0.308518 0.988436 0.506326
head 1.43492 0.448982 1.30413
rclavicle 7.10655e-014 -1.03368e-014
rhumerus -55.8591 13.9355 -105.362
rradius 85.9863
rwrist -6.33657
rhand -15.3307 26.0053
rfingers 7.12502
rthumb 10.8458 -3.69462
lclavicle 7.10655e-014 -1.03368e-014
lhumerus -68.1216 -2.64702 89.3821
lradius 115.24
lwrist 14.2086
lhand -8.93099 -13.1826
lfingers 7.12502
lthumb 17.0129 16.0924
rfemur 12.0275 -4.95441 14.9833
rtibia 67.8446
rfoot 6.56013 -3.41992
rtoes -6.80696
lfemur -19.8474 0.2526 -31.1666
ltibia 36.6817
lfoot -10.5451 -3.10628
ltoes -1.54255
23
root 16.4911 17.256 17.7763 -175.888 -48.5701 168.548
lowerback 15.9331 0.342373 -6.16242
upperback 3.7469 -1.21306 -3.67973
thorax -4.9056 -0.730754 -0.156343
lowerneck -7.88703 0.45295 -6.31999
upperneck -0.156676 1.07862 0.418651
head 1.25493 0.499228 1.24558
rclavicle 1.63997e-014 2.54444e-014
rhumerus -55.0787 13.1705 -104.957
rradius 84.5916
rwrist -5.76661
rhand -15.7132 25.8833
rfingers 7.12502
rthumb 10.4769 -3.83562
lclavicle 1.63997e-014 2.54444e-014
lhumerus -67.0854 -2.5701 89.2555
lradius 115.602
lwrist 15.1627
lhand -9.20584 -13.1188
lfingers 7.12502
lthumb 16.7483 16.1788
rfemur 10.5794 -5.42988 13.8023
rtibia 71.7922
rfoot 6.08758 -2.09286
rtoes -6.76248
lfemur -19.3283 -0.143081 -31.6494
ltibia 39.0209
lfoot -12.6012 -2.9359
ltoes 1.80812
24
root 16.2404 17.1148 17.5326 -176.002 -48.5531 168.086
lowerback 16.564 0.252799 -6.52119
upperback 3.93928 -1.48616 -3.81921
thorax -5.02639 -0.877847 -0.0428898
lowerneck -7.72179 0.553024 -6.17583
upperneck -0.57875 1.17389 0.34617
head 1.08707 0.55155 1.1942
rclavicle -2.08724e-015 -2.38542e-014
rhumerus -54.3572 12.3956 -104.574
rradius 83.3755
rwrist -5.13792
rhand -16.147 25.6753
rfingers 7.12502
rthumb 10.0583 -4.06433
lclavicle -2.08724e-015 -2.38542e-014
lhumerus -66.185 -2.60786 89.1365
lradius 115.836
lwrist 16.0725
lhand -9.65776 -13.29
lfingers 7.12502
lthumb 16.3132 16.0439
rfemur 8.81922 -5.79379 12.663
rtibia 75.6555
rfoot 5.48713 -1.03088
rtoes -6.63638
lfemur -18.8851 -0.669012 -32.175
ltibia 41.3129
lfoot -14.9484 -2.60541
ltoes 4.39595
25
root 15.9899 16.9854 17.2887 -176.073 -48.4777 167.697
lowerback 17.0588 0.156335 -6.85256
upperback 4.0927 -1.74931 -3.93094
thorax -5.11209 -1.01775 0.0838902
lowerneck -7.57467 0.655468 -6.13376
upperneck -0.911646 1.28473 0.31374
head 0.951391 0.610876 1.17493
rclavicle -3.05134e-014 8.50798e-014
rhumerus -53.7946 11.525 -104.139
rradius 82.282
rwrist -4.35439
rhand -16.5782 25.5321
rfingers 7.12502
rthumb 9.64228 -4.22725
lclavicle -3.05134e-014 8.50798e-014
lhumerus -65.3662 -2.682 89.0404
lradius 115.891
lwrist 16.7566
lhand -10.2792 -13.635
lfingers 7.12502
lthumb 15.7147 15.7469
rfemur 6.90794 -5.99866 11.6763
rtibia 79.279
rfoot 4.88083 -0.340189
rtoes -6.2541
lfemur -18.3469 -0.867008 -32.6562
ltibia 43.4107
lfoot -17.3788 -2.47204
ltoes 6.17967
